<svg width="127" height="128" viewBox="0 0 127 128" fill="none" xmlns="http://www.w3.org/2000/svg">
<g clip-path="url(#clip0_0_3)">
<path d="M15.2548 82.632C16.6201 82.632 17.6014 82.4187 18.1988 81.992C18.7961 81.5653 19.0948 80.8613 19.0948 79.88V42.12C19.0948 41.1387 18.7961 40.4347 18.1988 40.008C17.6014 39.5813 16.6201 39.368 15.2548 39.368V37H30.4868C38.3801 37 42.3268 41.5653 42.3268 50.696V71.304C42.3268 80.4347 38.3801 85 30.4868 85H15.2548V82.632ZM30.4868 39.56H26.2628V82.44H30.4868C31.9374 82.44 33.0894 81.8853 33.9428 80.776C34.8388 79.624 35.2868 78.1307 35.2868 76.296V45.704C35.2868 43.8267 34.8388 42.3333 33.9428 41.224C33.0894 40.1147 31.9374 39.56 30.4868 39.56ZM47.0078 82.632C48.3731 82.632 49.3544 82.4187 49.9518 81.992C50.5491 81.5653 50.8478 80.8613 50.8478 79.88V42.12C50.8478 41.1387 50.5491 40.4347 49.9518 40.008C49.3544 39.5813 48.3731 39.368 47.0078 39.368V37H63.0078C71.0291 37 75.0398 41.5867 75.0398 50.76C75.0398 53.8747 74.5704 56.392 73.6318 58.312C72.7358 60.232 71.1571 61.8533 68.8958 63.176C70.9438 64.4987 72.4158 66.1413 73.3118 68.104C74.2078 70.024 74.6558 72.4773 74.6558 75.464V76.296C74.6558 78.1733 75.0824 79.7093 75.9358 80.904C76.7891 82.056 77.9198 82.632 79.3278 82.632H80.0318V85H79.3278C75.1891 85 72.1384 83.9973 70.1758 81.992C68.2558 79.944 67.2958 76.7867 67.2958 72.52V70.728C67.2958 68.8507 66.8478 67.3147 65.9518 66.12C65.0984 64.9253 63.9891 64.328 62.6238 64.328H61.0878V61.768H63.0078C64.4584 61.768 65.6104 61.192 66.4638 60.04C67.3598 58.888 67.8078 57.3733 67.8078 55.496V45.704C67.8078 43.8267 67.3811 42.3333 66.5278 41.224C65.6744 40.1147 64.5011 39.56 63.0078 39.56H58.0158V79.88C58.0158 80.8613 58.3144 81.5653 58.9118 81.992C59.5091 82.4187 60.4904 82.632 61.8558 82.632V85H47.0078V82.632ZM80.1073 82.632C81.4726 82.632 82.4539 82.4187 83.0513 81.992C83.6486 81.5653 83.9473 80.8613 83.9473 79.88V42.12C83.9473 41.1387 83.6486 40.4347 83.0513 40.008C82.4539 39.5813 81.4726 39.368 80.1073 39.368V37H91.3713L104.875 67.336V42.12C104.875 41.1387 104.577 40.4347 103.979 40.008C103.382 39.5813 102.401 39.368 101.035 39.368V37H111.723V39.368C110.358 39.368 109.377 39.5813 108.779 40.008C108.182 40.4347 107.883 41.1387 107.883 42.12V85H104.747L86.9553 44.68V79.88C86.9553 80.8613 87.2539 81.5653 87.8513 81.992C88.4486 82.4187 89.4299 82.632 90.7953 82.632V85H80.1073V82.632Z" fill="black"/>
<circle cx="63" cy="64" r="58" stroke="black" stroke-width="4"/>
</g>
<defs>
<clipPath id="clip0_0_3">
<rect width="127" height="128" fill="white"/>
</clipPath>
</defs>
</svg>
